<svg width="518" height="224" viewBox="0 0 518 224" fill="none" xmlns="http://www.w3.org/2000/svg">
<rect width="518" height="224" fill="#EEFFE3"/>
<path d="M49.255 33.125V37.49H47.545L47.275 35H41.785L41.515 37.49H39.805V33.125H40.57C40.78 32.885 40.95 32.58 41.08 32.21C41.22 31.83 41.345 31.315 41.455 30.665C41.575 30.015 41.715 29.085 41.875 27.875L42.28 24.605H48.34V33.125H49.255ZM45.955 26.42H44.35L44.23 27.665C44.11 28.825 43.975 29.75 43.825 30.44C43.685 31.13 43.51 31.685 43.3 32.105C43.1 32.515 42.835 32.855 42.505 33.125H45.955V26.42ZM53.8282 26.78C55.0482 26.78 56.0032 27.155 56.6932 27.905C57.3832 28.645 57.7282 29.685 57.7282 31.025C57.7282 31.875 57.5682 32.62 57.2482 33.26C56.9382 33.89 56.4882 34.38 55.8982 34.73C55.3182 35.08 54.6282 35.255 53.8282 35.255C52.6182 35.255 51.6632 34.885 50.9632 34.145C50.2732 33.395 49.9282 32.35 49.9282 31.01C49.9282 30.16 50.0832 29.42 50.3932 28.79C50.7132 28.15 51.1632 27.655 51.7432 27.305C52.3332 26.955 53.0282 26.78 53.8282 26.78ZM53.8282 28.52C53.3482 28.52 52.9882 28.725 52.7482 29.135C52.5082 29.535 52.3882 30.16 52.3882 31.01C52.3882 31.88 52.5032 32.515 52.7332 32.915C52.9732 33.315 53.3382 33.515 53.8282 33.515C54.3082 33.515 54.6682 33.315 54.9082 32.915C55.1482 32.505 55.2682 31.875 55.2682 31.025C55.2682 30.155 55.1482 29.52 54.9082 29.12C54.6782 28.72 54.3182 28.52 53.8282 28.52ZM65.6815 27.035V35H63.3115V28.775H61.7965L61.6465 30.47C61.5365 31.64 61.4065 32.515 61.2565 33.095C61.1165 33.665 60.8665 34.115 60.5065 34.445C60.1465 34.775 59.5965 35.025 58.8565 35.195L58.2715 33.47C58.6015 33.32 58.8315 33.165 58.9615 33.005C59.1015 32.835 59.2065 32.57 59.2765 32.21C59.3465 31.84 59.4115 31.22 59.4715 30.35L59.7115 27.035H65.6815ZM74.2362 27.035V35H71.8662V28.775H70.3512L70.2012 30.47C70.0912 31.64 69.9612 32.515 69.8112 33.095C69.6712 33.665 69.4212 34.115 69.0612 34.445C68.7012 34.775 68.1512 35.025 67.4112 35.195L66.8262 33.47C67.1562 33.32 67.3862 33.165 67.5162 33.005C67.6562 32.835 67.7612 32.57 67.8312 32.21C67.9012 31.84 67.9662 31.22 68.0262 30.35L68.2662 27.035H74.2362ZM82.4309 32.69C82.4309 32.99 82.4709 33.21 82.5509 33.35C82.6409 33.49 82.7809 33.595 82.9709 33.665L82.4759 35.21C81.9859 35.17 81.5859 35.065 81.2759 34.895C80.9659 34.715 80.7259 34.435 80.5559 34.055C80.0359 34.855 79.2359 35.255 78.1559 35.255C77.3659 35.255 76.7359 35.025 76.2659 34.565C75.7959 34.105 75.5609 33.505 75.5609 32.765C75.5609 31.895 75.8809 31.23 76.5209 30.77C77.1609 30.31 78.0859 30.08 79.2959 30.08H80.1059V29.735C80.1059 29.265 80.0059 28.945 79.8059 28.775C79.6059 28.595 79.2559 28.505 78.7559 28.505C78.4959 28.505 78.1809 28.545 77.8109 28.625C77.4409 28.695 77.0609 28.795 76.6709 28.925L76.1309 27.365C76.6309 27.175 77.1409 27.03 77.6609 26.93C78.1909 26.83 78.6809 26.78 79.1309 26.78C80.2709 26.78 81.1059 27.015 81.6359 27.485C82.1659 27.955 82.4309 28.66 82.4309 29.6V32.69ZM78.8459 33.56C79.3859 33.56 79.8059 33.305 80.1059 32.795V31.385H79.5209C78.9809 31.385 78.5759 31.48 78.3059 31.67C78.0459 31.86 77.9159 32.155 77.9159 32.555C77.9159 32.875 77.9959 33.125 78.1559 33.305C78.3259 33.475 78.5559 33.56 78.8459 33.56ZM88.8187 26.78C89.8187 26.78 90.5637 27.15 91.0537 27.89C91.5437 28.63 91.7887 29.665 91.7887 30.995C91.7887 31.815 91.6587 32.55 91.3987 33.2C91.1487 33.84 90.7837 34.345 90.3037 34.715C89.8237 35.075 89.2637 35.255 88.6237 35.255C87.8237 35.255 87.1787 34.98 86.6887 34.43V38.075L84.3187 38.33V27.035H86.4037L86.5237 27.92C86.8337 27.53 87.1887 27.245 87.5887 27.065C87.9887 26.875 88.3987 26.78 88.8187 26.78ZM87.9037 33.515C88.8537 33.515 89.3287 32.685 89.3287 31.025C89.3287 30.085 89.2237 29.435 89.0137 29.075C88.8037 28.705 88.4887 28.52 88.0687 28.52C87.7987 28.52 87.5437 28.6 87.3037 28.76C87.0737 28.92 86.8687 29.15 86.6887 29.45V32.81C87.0087 33.28 87.4137 33.515 87.9037 33.515Z" fill="black"/>
<path d="M437.57 24.65C438.3 24.65 438.925 24.78 439.445 25.04C439.975 25.3 440.375 25.65 440.645 26.09C440.925 26.53 441.065 27.015 441.065 27.545C441.065 28.085 440.955 28.6 440.735 29.09C440.515 29.58 440.125 30.145 439.565 30.785C439.005 31.415 438.19 32.215 437.12 33.185H441.275L441.035 35H434.435V33.32C435.665 32.11 436.56 31.2 437.12 30.59C437.68 29.97 438.07 29.455 438.29 29.045C438.52 28.635 438.635 28.215 438.635 27.785C438.635 27.375 438.515 27.055 438.275 26.825C438.045 26.585 437.73 26.465 437.33 26.465C436.97 26.465 436.65 26.55 436.37 26.72C436.09 26.88 435.795 27.145 435.485 27.515L434.09 26.405C434.51 25.855 435.01 25.425 435.59 25.115C436.18 24.805 436.84 24.65 437.57 24.65ZM443.549 32.54C443.919 32.54 444.234 32.675 444.494 32.945C444.764 33.205 444.899 33.52 444.899 33.89C444.899 34.27 444.764 34.595 444.494 34.865C444.234 35.125 443.919 35.255 443.549 35.255C443.169 35.255 442.844 35.125 442.574 34.865C442.314 34.595 442.184 34.27 442.184 33.89C442.184 33.52 442.314 33.205 442.574 32.945C442.844 32.675 443.169 32.54 443.549 32.54ZM453.176 31.04V32.81H452.036V35H449.726L449.711 32.81H445.436V31.235L448.316 24.605L450.326 25.355L447.881 31.04H449.741L449.996 28.64H452.036V31.04H453.176ZM456.848 24.65C457.558 24.65 458.163 24.765 458.663 24.995C459.173 25.225 459.558 25.535 459.818 25.925C460.088 26.315 460.223 26.75 460.223 27.23C460.223 27.84 460.048 28.35 459.698 28.76C459.358 29.17 458.873 29.465 458.243 29.645C458.923 29.715 459.478 29.96 459.908 30.38C460.338 30.79 460.553 31.375 460.553 32.135C460.553 32.705 460.403 33.23 460.103 33.71C459.803 34.18 459.358 34.555 458.768 34.835C458.188 35.115 457.493 35.255 456.683 35.255C455.203 35.255 454.043 34.745 453.203 33.725L454.478 32.48C454.818 32.82 455.148 33.07 455.468 33.23C455.798 33.38 456.158 33.455 456.548 33.455C457.018 33.455 457.398 33.325 457.688 33.065C457.978 32.805 458.123 32.445 458.123 31.985C458.123 31.465 457.983 31.095 457.703 30.875C457.433 30.645 457.023 30.53 456.473 30.53H455.633L455.888 28.895H456.473C456.923 28.895 457.278 28.78 457.538 28.55C457.798 28.32 457.928 27.995 457.928 27.575C457.928 27.205 457.808 26.92 457.568 26.72C457.328 26.51 456.998 26.405 456.578 26.405C455.868 26.405 455.208 26.7 454.598 27.29L453.428 26.015C454.388 25.105 455.528 24.65 456.848 24.65ZM464.641 24.65C465.351 24.65 465.956 24.765 466.456 24.995C466.966 25.225 467.351 25.535 467.611 25.925C467.881 26.315 468.016 26.75 468.016 27.23C468.016 27.84 467.841 28.35 467.491 28.76C467.151 29.17 466.666 29.465 466.036 29.645C466.716 29.715 467.271 29.96 467.701 30.38C468.131 30.79 468.346 31.375 468.346 32.135C468.346 32.705 468.196 33.23 467.896 33.71C467.596 34.18 467.151 34.555 466.561 34.835C465.981 35.115 465.286 35.255 464.476 35.255C462.996 35.255 461.836 34.745 460.996 33.725L462.271 32.48C462.611 32.82 462.941 33.07 463.261 33.23C463.591 33.38 463.951 33.455 464.341 33.455C464.811 33.455 465.191 33.325 465.481 33.065C465.771 32.805 465.916 32.445 465.916 31.985C465.916 31.465 465.776 31.095 465.496 30.875C465.226 30.645 464.816 30.53 464.266 30.53H463.426L463.681 28.895H464.266C464.716 28.895 465.071 28.78 465.331 28.55C465.591 28.32 465.721 27.995 465.721 27.575C465.721 27.205 465.601 26.92 465.361 26.72C465.121 26.51 464.791 26.405 464.371 26.405C463.661 26.405 463.001 26.7 462.391 27.29L461.221 26.015C462.181 25.105 463.321 24.65 464.641 24.65ZM474.024 28.175C474.584 28.175 475.084 28.31 475.524 28.58C475.964 28.84 476.309 29.225 476.559 29.735C476.809 30.235 476.934 30.835 476.934 31.535C476.934 32.225 476.784 32.855 476.484 33.425C476.184 33.985 475.754 34.43 475.194 34.76C474.644 35.09 473.999 35.255 473.259 35.255C471.959 35.255 470.994 34.82 470.364 33.95C469.734 33.08 469.419 31.885 469.419 30.365C469.419 29.225 469.594 28.225 469.944 27.365C470.304 26.505 470.814 25.84 471.474 25.37C472.144 24.89 472.929 24.65 473.829 24.65C474.699 24.65 475.469 24.875 476.139 25.325L475.269 26.735C474.819 26.475 474.359 26.345 473.889 26.345C473.319 26.345 472.859 26.585 472.509 27.065C472.159 27.545 471.949 28.225 471.879 29.105C472.489 28.485 473.204 28.175 474.024 28.175ZM473.289 33.56C473.709 33.56 474.024 33.385 474.234 33.035C474.454 32.675 474.564 32.185 474.564 31.565C474.564 30.935 474.464 30.485 474.264 30.215C474.064 29.945 473.764 29.81 473.364 29.81C472.824 29.81 472.329 30.075 471.879 30.605C471.899 31.675 472.014 32.435 472.224 32.885C472.434 33.335 472.789 33.56 473.289 33.56Z" fill="black"/>
<path d="M45.265 52.967C45.057 53.3137 44.7883 53.6343 44.459 53.929L42.496 55.736L41.781 54.943L45.85 51.29L49.919 54.943L49.204 55.736L47.241 53.929C46.9117 53.6343 46.643 53.3137 46.435 52.967V60H45.265V52.967ZM58.7725 51.173C59.7345 51.173 60.4582 51.5587 60.9435 52.33C61.4375 53.0927 61.6845 54.202 61.6845 55.658C61.6845 57.114 61.4375 58.2277 60.9435 58.999C60.4582 59.7703 59.7345 60.156 58.7725 60.156C57.8105 60.156 57.0825 59.7703 56.5885 58.999C56.1032 58.2277 55.8605 57.114 55.8605 55.658C55.8605 54.202 56.1032 53.0927 56.5885 52.33C57.0825 51.5587 57.8105 51.173 58.7725 51.173ZM58.7725 52.122C58.2092 52.122 57.7888 52.3993 57.5115 52.954C57.2428 53.5087 57.1085 54.41 57.1085 55.658C57.1085 56.906 57.2428 57.8117 57.5115 58.375C57.7888 58.9297 58.2092 59.207 58.7725 59.207C59.3272 59.207 59.7432 58.9297 60.0205 58.375C60.2978 57.8117 60.4365 56.906 60.4365 55.658C60.4365 54.4187 60.2978 53.5217 60.0205 52.967C59.7432 52.4037 59.3272 52.122 58.7725 52.122ZM63.9415 58.349C64.2015 58.349 64.4182 58.4357 64.5915 58.609C64.7649 58.7823 64.8515 58.9947 64.8515 59.246C64.8515 59.4973 64.7649 59.714 64.5915 59.896C64.4182 60.0693 64.2015 60.156 63.9415 60.156C63.6902 60.156 63.4779 60.0693 63.3045 59.896C63.1312 59.714 63.0445 59.4973 63.0445 59.246C63.0445 58.9947 63.1312 58.7823 63.3045 58.609C63.4779 58.4357 63.6902 58.349 63.9415 58.349ZM68.9922 51.173C69.9542 51.173 70.6779 51.5587 71.1632 52.33C71.6572 53.0927 71.9042 54.202 71.9042 55.658C71.9042 57.114 71.6572 58.2277 71.1632 58.999C70.6779 59.7703 69.9542 60.156 68.9922 60.156C68.0302 60.156 67.3022 59.7703 66.8082 58.999C66.3229 58.2277 66.0802 57.114 66.0802 55.658C66.0802 54.202 66.3229 53.0927 66.8082 52.33C67.3022 51.5587 68.0302 51.173 68.9922 51.173ZM68.9922 52.122C68.4289 52.122 68.0086 52.3993 67.7312 52.954C67.4626 53.5087 67.3282 54.41 67.3282 55.658C67.3282 56.906 67.4626 57.8117 67.7312 58.375C68.0086 58.9297 68.4289 59.207 68.9922 59.207C69.5469 59.207 69.9629 58.9297 70.2402 58.375C70.5176 57.8117 70.6562 56.906 70.6562 55.658C70.6562 54.4187 70.5176 53.5217 70.2402 52.967C69.9629 52.4037 69.5469 52.122 68.9922 52.122ZM76.2413 51.173C77.2033 51.173 77.9269 51.5587 78.4123 52.33C78.9063 53.0927 79.1533 54.202 79.1533 55.658C79.1533 57.114 78.9063 58.2277 78.4123 58.999C77.9269 59.7703 77.2033 60.156 76.2413 60.156C75.2793 60.156 74.5513 59.7703 74.0573 58.999C73.5719 58.2277 73.3293 57.114 73.3293 55.658C73.3293 54.202 73.5719 53.0927 74.0573 52.33C74.5513 51.5587 75.2793 51.173 76.2413 51.173ZM76.2413 52.122C75.6779 52.122 75.2576 52.3993 74.9803 52.954C74.7116 53.5087 74.5773 54.41 74.5773 55.658C74.5773 56.906 74.7116 57.8117 74.9803 58.375C75.2576 58.9297 75.6779 59.207 76.2413 59.207C76.7959 59.207 77.2119 58.9297 77.4893 58.375C77.7666 57.8117 77.9053 56.906 77.9053 55.658C77.9053 54.4187 77.7666 53.5217 77.4893 52.967C77.2119 52.4037 76.7959 52.122 76.2413 52.122ZM83.7322 51.303V60H82.5362V52.577L80.5082 53.812L79.9882 52.967L82.6792 51.303H83.7322ZM89.1785 51.303V60H87.9825V52.577L85.9545 53.812L85.4345 52.967L88.1255 51.303H89.1785Z" fill="#009250"/>
<path d="M53.2727 94.0506L40 87.5232V201H478V78.654L462.385 87.5232H448.332L431.936 82H417.882L403.048 89.0295H374.16L358.545 84.5105L344.492 86.0169L329.658 83.5063L314.043 86.0169L299.209 90.5359L269.54 89.0295L250.021 87.5232L228.941 83.5063H213.326L199.273 121.667H186L170.385 89.0295H155.551L127.444 86.0169L112.61 87.5232L97.7754 138.236L82.9412 168.363L68.8877 83.5063L53.2727 94.0506Z" fill="url(#paint0_radial_266_2452)"/>
<path d="M53.2727 94.0506L40 87.5232V201H478V78.654L462.385 87.5232H448.332L431.936 82H417.882L403.048 89.0295H374.16L358.545 84.5105L344.492 86.0169L329.658 83.5063L314.043 86.0169L299.209 90.5359L269.54 89.0295L250.021 87.5232L228.941 83.5063H213.326L199.273 121.667H186L170.385 89.0295H155.551L127.444 86.0169L112.61 87.5232L97.7754 138.236L82.9412 168.363L68.8877 83.5063L53.2727 94.0506Z" fill="url(#paint1_linear_266_2452)"/>
<path d="M53.2727 94.0507L53.0521 94.4994L53.3123 94.6273L53.5525 94.4651L53.2727 94.0507ZM68.8877 83.5064L69.381 83.4247L69.2537 82.6559L68.6079 83.092L68.8877 83.5064ZM82.9412 168.363L82.4479 168.445L82.7022 169.98L83.3897 168.584L82.9412 168.363ZM97.7754 138.236L98.224 138.457L98.2431 138.418L98.2553 138.377L97.7754 138.236ZM112.61 87.5233L112.559 87.0258L112.224 87.0598L112.13 87.3829L112.61 87.5233ZM127.444 86.0169L127.497 85.5198L127.445 85.5142L127.393 85.5195L127.444 86.0169ZM155.551 89.0296L155.498 89.5267L155.524 89.5296H155.551V89.0296ZM170.385 89.0296L170.836 88.8138L170.7 88.5296H170.385V89.0296ZM186 121.667L185.549 121.883L185.685 122.167H186V121.667ZM199.273 121.667V122.167H199.621L199.742 121.84L199.273 121.667ZM213.326 83.5064V83.0064H212.978L212.857 83.3336L213.326 83.5064ZM228.941 83.5064L229.035 83.0152L228.988 83.0064H228.941V83.5064ZM250.021 87.5233L249.928 88.0144L249.955 88.0196L249.983 88.0218L250.021 87.5233ZM269.54 89.0296L269.502 89.5283L269.515 89.5289L269.54 89.0296ZM299.209 90.5359L299.183 91.0353L299.271 91.0397L299.354 91.0142L299.209 90.5359ZM314.043 86.0169L313.963 85.5233L313.93 85.5287L313.897 85.5386L314.043 86.0169ZM329.658 83.5064L329.741 83.0134L329.66 82.9996L329.578 83.0127L329.658 83.5064ZM344.492 86.0169L344.409 86.5099L344.477 86.5214L344.545 86.5141L344.492 86.0169ZM358.545 84.5106L358.684 84.0303L358.59 84.003L358.492 84.0134L358.545 84.5106ZM374.16 89.0296L374.021 89.5099L374.09 89.5296H374.16V89.0296ZM403.048 89.0296V89.5296H403.161L403.262 89.4814L403.048 89.0296ZM417.882 82V81.5H417.77L417.668 81.5482L417.882 82ZM431.936 82L432.095 81.5262L432.018 81.5H431.936V82ZM448.332 87.5233L448.172 87.9971L448.25 88.0233H448.332V87.5233ZM462.385 87.5233V88.0233H462.519L462.635 87.9566L462.385 87.5233ZM483 75.6541L477.227 75.6471L480.107 80.6506L483 75.6541ZM39.7793 87.9719L53.0521 94.4994L53.4934 93.602L40.2207 87.0746L39.7793 87.9719ZM53.5525 94.4651L69.1675 83.9207L68.6079 83.092L52.9929 93.6363L53.5525 94.4651ZM68.3944 83.5881L82.4479 168.445L83.4345 168.281L69.381 83.4247L68.3944 83.5881ZM83.3897 168.584L98.224 138.457L97.3268 138.015L82.4926 168.142L83.3897 168.584ZM98.2553 138.377L113.09 87.6636L112.13 87.3829L97.2955 138.096L98.2553 138.377ZM112.66 88.0207L127.494 86.5144L127.393 85.5195L112.559 87.0258L112.66 88.0207ZM127.391 86.5141L155.498 89.5267L155.604 88.5324L127.497 85.5198L127.391 86.5141ZM155.551 89.5296H170.385V88.5296H155.551V89.5296ZM169.934 89.2454L185.549 121.883L186.451 121.451L170.836 88.8138L169.934 89.2454ZM186 122.167H199.273V121.167H186V122.167ZM199.742 121.84L213.795 83.6792L212.857 83.3336L198.804 121.494L199.742 121.84ZM213.326 84.0064H228.941V83.0064H213.326V84.0064ZM228.848 83.9975L249.928 88.0144L250.115 87.0321L229.035 83.0152L228.848 83.9975ZM249.983 88.0218L269.502 89.5281L269.579 88.5311L250.06 87.0247L249.983 88.0218ZM269.515 89.5289L299.183 91.0353L299.234 90.0366L269.565 88.5302L269.515 89.5289ZM299.354 91.0142L314.188 86.4952L313.897 85.5386L299.063 90.0576L299.354 91.0142ZM314.122 86.5106L329.737 84L329.578 83.0127L313.963 85.5233L314.122 86.5106ZM329.574 83.9994L344.409 86.5099L344.575 85.5239L329.741 83.0134L329.574 83.9994ZM344.545 86.5141L358.599 85.0077L358.492 84.0134L344.439 85.5198L344.545 86.5141ZM358.406 84.9909L374.021 89.5099L374.299 88.5493L358.684 84.0303L358.406 84.9909ZM374.16 89.5296H403.048V88.5296H374.16V89.5296ZM403.262 89.4814L418.096 82.4519L417.668 81.5482L402.834 88.5777L403.262 89.4814ZM417.882 82.5H431.936V81.5H417.882V82.5ZM431.776 82.4739L448.172 87.9971L448.491 87.0494L432.095 81.5262L431.776 82.4739ZM448.332 88.0233H462.385V87.0233H448.332V88.0233ZM462.635 87.9566L479.35 78.3327L478.851 77.4661L462.136 87.0899L462.635 87.9566Z" fill="url(#paint2_linear_266_2452)"/>
<defs>
<radialGradient id="paint0_radial_266_2452" cx="0" cy="0" r="1" gradientUnits="userSpaceOnUse" gradientTransform="translate(40 201) rotate(-15.1998) scale(453.878 1938.12)">
<stop stop-color="#FFF500"/>
<stop offset="1" stop-color="#00FF19"/>
</radialGradient>
<linearGradient id="paint1_linear_266_2452" x1="259" y1="81.9999" x2="259" y2="201" gradientUnits="userSpaceOnUse">
<stop stop-color="#EDFFE3" stop-opacity="0.88"/>
<stop offset="1" stop-color="#EDFFE3"/>
</linearGradient>
<linearGradient id="paint2_linear_266_2452" x1="261.5" y1="75.6541" x2="261.5" y2="168.363" gradientUnits="userSpaceOnUse">
<stop stop-color="#10C200"/>
<stop offset="1" stop-color="#FFD600"/>
</linearGradient>
</defs>
</svg>
