<svg width="127" height="24" viewBox="0 0 127 24" fill="none" xmlns="http://www.w3.org/2000/svg">
<path d="M8.05014 23.8812C6.36802 23.8812 4.80606 23.6436 3.60454 23.4059C2.40303 23.1683 1.08136 22.6931 0 22.099V16.7525H0.480605C1.68212 17.703 2.88363 18.4158 4.2053 19.0099C5.64711 19.4851 6.84863 19.7228 8.17029 19.7228C8.53075 19.7228 8.8912 19.7228 9.49196 19.604C9.97256 19.4851 10.4532 19.3663 10.8136 19.2475C11.2942 19.0099 11.5345 18.7723 11.7748 18.5346C12.1353 18.1782 12.2554 17.8218 12.2554 17.3465C12.2554 16.8713 12.0151 16.2772 11.6547 15.9208C11.2942 15.5644 10.6935 15.3267 10.0927 15.2079C9.37181 14.9703 8.53075 14.7327 7.68969 14.7327C6.84863 14.495 6.00757 14.2574 5.28666 14.1386C3.60454 13.5446 2.28288 12.7129 1.56197 11.7624C0.841059 10.6931 0.360453 9.38614 0.360453 7.9604C0.360453 5.82179 1.20151 4.15842 3.00378 2.85149C4.80605 1.54456 7.08893 0.950498 9.73226 0.950498C11.1741 0.950498 12.3756 1.06931 13.6973 1.42575C15.0189 1.78219 16.1003 2.0198 17.1816 2.49505V7.60396H16.701C15.86 6.89109 14.8988 6.29703 13.5771 5.82178C12.3756 5.34653 11.1741 5.10891 9.85241 5.10891C9.37181 5.10891 8.8912 5.10891 8.53075 5.22773C8.05014 5.34654 7.68969 5.46535 7.20908 5.70297C6.84863 5.82178 6.60833 6.17822 6.24787 6.41584C6.00757 6.77228 5.76726 7.0099 5.76726 7.48515C5.76726 7.9604 6.00757 8.55445 6.36802 8.91089C6.72848 9.26732 7.56954 9.50495 8.77105 9.86139C9.49196 10.099 10.2129 10.2178 10.9338 10.3366C11.6547 10.4555 12.3756 10.8119 13.2167 10.9307C14.7786 11.4059 15.86 12.2376 16.701 13.1881C17.422 14.1386 17.9026 15.4455 17.9026 16.8713C17.9026 19.1287 17.0615 20.9109 15.2592 22.2178C13.457 23.1683 11.0539 23.8812 8.05014 23.8812ZM36.4059 15.0891C36.4059 17.8218 35.685 20.0792 34.123 21.6238C32.6812 23.1683 30.5185 24 27.6348 24C24.8713 24 22.7086 23.1683 21.2668 21.6238C19.825 20.0792 18.8638 17.8218 18.8638 15.0891C18.8638 12.3564 19.5847 10.099 21.2668 8.55446C22.7086 7.00991 24.9915 6.17822 27.6348 6.17822C30.3983 6.17822 32.561 7.00991 34.123 8.55446C35.685 10.099 36.4059 12.3564 36.4059 15.0891ZM30.9991 15.0891C30.9991 14.1386 30.8789 13.3069 30.7588 12.5941C30.5185 12 30.2781 11.4059 30.158 11.0495C29.7975 10.5743 29.5572 10.3366 29.0766 10.2178C28.596 9.98019 28.2356 9.9802 27.6348 9.9802C27.1542 9.9802 26.7938 10.099 26.3132 10.2178C25.8326 10.3366 25.5922 10.6931 25.2318 11.0495C24.8713 11.4059 24.7512 12 24.5109 12.5941C24.2706 13.1881 24.1504 14.0198 24.1504 15.0891C24.1504 16.1584 24.2706 16.9901 24.3907 17.5842C24.631 18.1782 24.8713 18.7723 24.9915 19.0099C25.3519 19.4851 25.5922 19.604 26.0728 19.8416C26.5535 20.0792 26.9139 20.198 27.5147 20.198C27.9953 20.198 28.3557 20.0792 28.8363 19.8416C29.3169 19.604 29.5572 19.3663 29.9177 19.0099C30.2782 18.6535 30.3983 18.0594 30.6386 17.4653C30.8789 16.9901 30.9991 16.1584 30.9991 15.0891ZM49.1419 4.15841H48.6613C48.421 4.0396 48.1807 4.03961 47.7001 3.9208C47.2195 3.80198 46.859 3.80199 46.4986 3.80199C45.4172 3.80199 44.6963 4.0396 44.3359 4.27723C43.8553 4.75248 43.8553 5.46534 43.8553 6.53465V6.65346H48.0606V10.3366H43.9754V23.4059H38.6887V10.3366H36.526V6.65346H38.6887V6.17822C38.6887 4.15842 39.1694 2.61387 40.2507 1.54456C41.3321 0.475253 43.0142 0 45.1769 0C45.8978 0 46.6187 -3.25751e-06 47.3396 0.118809C48.0606 0.23762 48.6613 0.237626 49.0218 0.356438C49.1419 0.237626 49.1419 4.15841 49.1419 4.15841ZM57.7928 23.7624C55.6301 23.7624 54.0681 23.2871 53.1069 22.4554C52.1457 21.6238 51.6651 20.0792 51.6651 18.1782V10.3366H49.7427V6.65346H51.7852V1.90099H57.0719V6.65346H62.2384V10.3366H57.0719V16.2772C57.0719 16.8713 57.0719 17.3465 57.0719 17.8218C57.0719 18.297 57.1921 18.6535 57.3122 19.0099C57.4324 19.3663 57.7928 19.604 58.0331 19.8416C58.3936 20.0792 58.8742 20.198 59.5951 20.198C59.9555 20.198 60.1958 20.0792 60.6764 19.9604C61.1571 19.8416 61.3974 19.7228 61.6377 19.604H62.1183V23.2871C61.6377 23.4059 60.9167 23.6436 60.316 23.6436C59.5951 23.7624 58.754 23.7624 57.7928 23.7624ZM74.2536 23.8812C70.8893 23.8812 68.1258 22.8119 66.2034 20.7921C64.1608 18.7723 63.1996 15.9208 63.1996 12.2376C63.1996 8.79208 64.1608 5.9406 66.2034 3.80199C68.246 1.66337 70.8893 0.594061 74.2536 0.594061C75.0946 0.594061 75.9357 0.594058 76.6566 0.712869C77.3775 0.831681 78.0984 0.950498 78.6992 1.18812C79.1798 1.30693 79.7805 1.54455 80.3813 1.78218C80.982 2.0198 81.4626 2.25743 81.8231 2.37624V7.60396H81.3425C80.982 7.36634 80.7417 7.12872 80.2611 6.77228C79.7805 6.41584 79.4201 6.17822 78.8193 5.82178C78.2185 5.46535 77.7379 5.22773 77.1372 4.9901C76.5364 4.75248 75.8155 4.63367 75.2148 4.63367C74.3737 4.63367 73.6528 4.75248 72.9319 5.10891C72.3311 5.34654 71.6102 5.82178 71.0095 6.53465C70.5289 7.0099 69.9281 7.96039 69.5676 8.91089C69.2072 9.86138 69.087 11.0495 69.087 12.2376C69.087 13.6634 69.3273 14.7327 69.5676 15.6832C70.0483 16.6337 70.4087 17.3465 71.0095 18.0594C71.4901 18.5347 72.3311 19.0099 72.9319 19.2475C73.6528 19.4851 74.3737 19.7228 75.0946 19.7228C75.8155 19.7228 76.5364 19.604 77.2573 19.3663C77.8581 19.1287 78.579 18.8911 78.9395 18.5346C79.4201 18.1782 79.9007 17.9406 80.2611 17.5842C80.7417 17.2277 80.982 16.9901 81.2223 16.7525H81.7029V21.8614C81.2223 22.099 80.8619 22.3366 80.2611 22.4554C79.6604 22.5743 79.1798 22.9307 78.579 23.0495C77.8581 23.2871 77.1372 23.4059 76.5364 23.5248C76.176 23.8812 75.3349 23.8812 74.2536 23.8812ZM90.2337 23.4059H84.947V0.118809H90.2337V23.4059ZM108.256 23.4059H102.97V21.6238C102.009 22.3366 101.288 23.0495 100.447 23.2871C99.7256 23.7624 98.7644 23.8812 97.6831 23.8812C96.001 23.8812 94.6793 23.4059 93.7181 22.3366C92.7569 21.2673 92.2763 19.7228 92.2763 17.5842V6.53465H97.6831V14.8515C97.6831 15.6832 97.6831 16.396 97.8032 16.9901C97.8032 17.4653 97.9234 18.0594 98.1637 18.4158C98.2838 18.7723 98.6443 19.0099 98.8846 19.1287C99.245 19.3663 99.7256 19.4851 100.326 19.4851C100.807 19.4851 101.167 19.3663 101.648 19.1287C102.129 18.8911 102.609 18.6535 103.09 18.4158V6.53465H108.377L108.256 23.4059ZM121.593 14.9703C121.593 13.3069 121.353 12.1188 120.872 11.4059C120.392 10.6931 119.551 10.3366 118.469 10.3366C117.989 10.3366 117.508 10.4554 117.027 10.5743C116.547 10.6931 116.066 11.0495 115.586 11.1683V19.604C115.946 19.7228 116.307 19.8416 116.667 19.9604C117.027 19.9604 117.388 20.0792 117.748 20.0792C119.07 20.0792 120.031 19.604 120.632 18.7723C121.233 17.8218 121.593 16.5148 121.593 14.9703ZM127 14.8515C127 17.4653 126.399 19.7228 124.957 21.2673C123.516 22.9307 121.833 23.6436 119.791 23.6436C118.95 23.6436 118.229 23.5247 117.508 23.2871C116.907 23.0495 116.186 22.8119 115.465 22.4554L115.225 23.2871H110.179V0.118809H115.465V8.31683C116.186 7.72277 117.027 7.12872 117.868 6.77228C118.71 6.29703 119.551 6.17822 120.632 6.17822C122.554 6.17822 124.116 6.8911 125.198 8.55446C126.519 9.9802 127 12.1188 127 14.8515Z" fill="#00A25F"/>
</svg>
